name ./resultDataOpenSim/trcMotMarkerGrf/sub10/grf-04-02.mot
datacolumns 19
datarows 27
range 1.05200000 1.15600000
endheader

                time	     ground_force_vx	     ground_force_vy	     ground_force_vz	     ground_force_px	     ground_force_py	     ground_force_pz	   l_ground_force_vx	   l_ground_force_vy	   l_ground_force_vz	   l_ground_force_px	   l_ground_force_py	   l_ground_force_pz	     ground_torque_x	     ground_torque_y	     ground_torque_z	   l_ground_torque_x	   l_ground_torque_y	   l_ground_torque_z	
          1.05200000	          0.00000000	          0.00000000	          0.00000000	          0.00000000	          0.00000000	          0.00000000	        -17.12272240	        467.65742986	         16.50825234	         -0.01647327	         -0.07500000	         -0.12362362	          0.00000000	          0.00000000	          0.00000000	          0.00000000	         -0.67374608	          0.00000000	
          1.05600000	          0.00000000	          0.00000000	          0.00000000	          0.00000000	          0.00000000	          0.00000000	        -15.02592636	        454.58273308	         16.09577836	         -0.01594139	         -0.07500000	         -0.12336603	          0.00000000	          0.00000000	          0.00000000	          0.00000000	         -0.63579289	          0.00000000	
          1.06000000	          0.00000000	          0.00000000	          0.00000000	          0.00000000	          0.00000000	          0.00000000	        -12.91574780	        441.70010912	         15.86222960	         -0.01560375	         -0.07500000	         -0.12325797	          0.00000000	          0.00000000	          0.00000000	          0.00000000	         -0.59896892	          0.00000000	
          1.06400000	          0.00000000	          0.00000000	          0.00000000	          0.00000000	          0.00000000	          0.00000000	        -10.76700712	        429.11206080	         15.75706180	         -0.01549082	         -0.07500000	         -0.12331941	          0.00000000	          0.00000000	          0.00000000	          0.00000000	         -0.56305028	          0.00000000	
          1.06800000	          0.00000000	          0.00000000	          0.00000000	          0.00000000	          0.00000000	          0.00000000	         -8.59577120	        417.01712448	         15.70030104	         -0.01551234	         -0.07500000	         -0.12349034	          0.00000000	          0.00000000	          0.00000000	          0.00000000	         -0.52917323	          0.00000000	
          1.07200000	          0.00000000	          0.00000000	          0.00000000	          0.00000000	          0.00000000	          0.00000000	         -6.45607903	        405.60176281	         15.60719323	         -0.01555171	         -0.07500000	         -0.12369208	          0.00000000	          0.00000000	          0.00000000	          0.00000000	         -0.49956900	          0.00000000	
          1.07600000	          0.00000000	          0.00000000	          0.00000000	          0.00000000	          0.00000000	          0.00000000	         -4.41855181	        394.96917137	         15.41613812	         -0.01552904	         -0.07500000	         -0.12386222	          0.00000000	          0.00000000	          0.00000000	          0.00000000	         -0.47691549	          0.00000000	
          1.08000000	          0.00000000	          0.00000000	          0.00000000	          0.00000000	          0.00000000	          0.00000000	         -2.53707723	        385.12266918	         15.11266689	         -0.01539315	         -0.07500000	         -0.12394567	          0.00000000	          0.00000000	          0.00000000	          0.00000000	         -0.46355643	          0.00000000	
          1.08400000	          0.00000000	          0.00000000	          0.00000000	          0.00000000	          0.00000000	          0.00000000	         -0.82731801	        376.00886159	         14.73905113	         -0.01510118	         -0.07500000	         -0.12390659	          0.00000000	          0.00000000	          0.00000000	          0.00000000	         -0.46085470	          0.00000000	
          1.08800000	          0.00000000	          0.00000000	          0.00000000	          0.00000000	          0.00000000	          0.00000000	          0.72715386	        367.59534652	         14.37392502	         -0.01463168	         -0.07500000	         -0.12372172	          0.00000000	          0.00000000	          0.00000000	          0.00000000	         -0.46888840	          0.00000000	
          1.09200000	          0.00000000	          0.00000000	          0.00000000	          0.00000000	          0.00000000	          0.00000000	          2.15910813	        359.90740932	         14.09446946	         -0.01405542	         -0.07500000	         -0.12340209	          0.00000000	          0.00000000	          0.00000000	          0.00000000	         -0.48659378	          0.00000000	
          1.09600000	          0.00000000	          0.00000000	          0.00000000	          0.00000000	          0.00000000	          0.00000000	          3.51122745	        353.02155776	         13.94867752	         -0.01350057	         -0.07500000	         -0.12301808	          0.00000000	          0.00000000	          0.00000000	          0.00000000	         -0.51232114	          0.00000000	
          1.10000000	          0.00000000	          0.00000000	          0.00000000	          0.00000000	          0.00000000	          0.00000000	          4.83065198	        347.05999601	         13.94749350	         -0.01303415	         -0.07500000	         -0.12261319	          0.00000000	          0.00000000	          0.00000000	          0.00000000	         -0.54460129	          0.00000000	
          1.10400000	          0.00000000	          0.00000000	          0.00000000	          0.00000000	          0.00000000	          0.00000000	          6.16296886	        342.16067213	         14.07779922	         -0.01262568	         -0.07500000	         -0.12215869	          0.00000000	          0.00000000	          0.00000000	          0.00000000	         -0.58279139	          0.00000000	
          1.10800000	          0.00000000	          0.00000000	          0.00000000	          0.00000000	          0.00000000	          0.00000000	          7.55242791	        338.40780454	         14.32243668	         -0.01223049	         -0.07500000	         -0.12164309	          0.00000000	          0.00000000	          0.00000000	          0.00000000	         -0.62735550	          0.00000000	
          1.11200000	          0.00000000	          0.00000000	          0.00000000	          0.00000000	          0.00000000	          0.00000000	          9.03685693	        335.79487388	         14.66275401	         -0.01185715	         -0.07500000	         -0.12110943	          0.00000000	          0.00000000	          0.00000000	          0.00000000	         -0.67978832	          0.00000000	
          1.11600000	          0.00000000	          0.00000000	          0.00000000	          0.00000000	          0.00000000	          0.00000000	         10.63740072	        334.27418918	         15.06591694	         -0.01155392	         -0.07500000	         -0.12063924	          0.00000000	          0.00000000	          0.00000000	          0.00000000	         -0.74231198	          0.00000000	
          1.12000000	          0.00000000	          0.00000000	          0.00000000	          0.00000000	          0.00000000	          0.00000000	         12.36459052	        333.84175360	         15.47792304	         -0.01137213	         -0.07500000	         -0.12028823	          0.00000000	          0.00000000	          0.00000000	          0.00000000	         -0.81742750	          0.00000000	
          1.12400000	          0.00000000	          0.00000000	          0.00000000	          0.00000000	          0.00000000	          0.00000000	         14.23304358	        334.57422232	         15.82917250	         -0.01132223	         -0.07500000	         -0.12007241	          0.00000000	          0.00000000	          0.00000000	          0.00000000	         -0.90740064	          0.00000000	
          1.12800000	          0.00000000	          0.00000000	          0.00000000	          0.00000000	          0.00000000	          0.00000000	         16.25594757	        336.60637423	         16.05383953	         -0.01138145	         -0.07500000	         -0.11996294	          0.00000000	          0.00000000	          0.00000000	          0.00000000	         -1.01380522	          0.00000000	
          1.13200000	          0.00000000	          0.00000000	          0.00000000	          0.00000000	          0.00000000	          0.00000000	         18.43069120	        340.09024177	         16.11674941	         -0.01151132	         -0.07500000	         -0.11988874	          0.00000000	          0.00000000	          0.00000000	          0.00000000	         -1.13723168	          0.00000000	
          1.13600000	          0.00000000	          0.00000000	          0.00000000	          0.00000000	          0.00000000	          0.00000000	         20.74377307	        345.16408230	         16.02708144	         -0.01166766	         -0.07500000	         -0.11975814	          0.00000000	          0.00000000	          0.00000000	          0.00000000	         -1.27725395	          0.00000000	
          1.14000000	          0.00000000	          0.00000000	          0.00000000	          0.00000000	          0.00000000	          0.00000000	         23.17819292	        351.94120279	         15.83241188	         -0.01180822	         -0.07500000	         -0.11949365	          0.00000000	          0.00000000	          0.00000000	          0.00000000	         -1.43273885	          0.00000000	
          1.14400000	          0.00000000	          0.00000000	          0.00000000	          0.00000000	          0.00000000	          0.00000000	         25.70243771	        360.51284499	         15.59945851	         -0.01190177	         -0.07500000	         -0.11907276	          0.00000000	          0.00000000	          0.00000000	          0.00000000	         -1.60245146	          0.00000000	
          1.14800000	          0.00000000	          0.00000000	          0.00000000	          0.00000000	          0.00000000	          0.00000000	         28.26429978	        370.94452527	         15.38278228	         -0.01191450	         -0.07500000	         -0.11851433	          0.00000000	          0.00000000	          0.00000000	          0.00000000	         -1.78568901	          0.00000000	
          1.15200000	          0.00000000	          0.00000000	          0.00000000	          0.00000000	          0.00000000	          0.00000000	         30.80422936	        383.26173311	         15.19353994	         -0.01180135	         -0.07500000	         -0.11784233	          0.00000000	          0.00000000	          0.00000000	          0.00000000	         -1.98258914	          0.00000000	
          1.15600000	          0.00000000	          0.00000000	          0.00000000	          0.00000000	          0.00000000	          0.00000000	         33.26983600	        397.42442052	         14.99167889	         -0.01154912	         -0.07500000	         -0.11708567	          0.00000000	          0.00000000	          0.00000000	          0.00000000	         -2.19390029	          0.00000000	
